<svg width="37" height="36" viewBox="0 0 37 36" fill="none" xmlns="http://www.w3.org/2000/svg">
<path d="M36.4063 25.6277C36.4063 31.1505 31.9291 35.6277 26.4063 35.6277L0.895512 35.6277L0.895514 10.1169C0.895514 4.5941 5.37267 0.116944 10.8955 0.116945L36.4063 0.116947L36.4063 25.6277Z" fill="#471224"/>
<path fill-rule="evenodd" clip-rule="evenodd" d="M0.895512 35.6277L26.4063 35.6277C31.9291 35.6277 36.4063 31.1505 36.4063 25.6277L36.4063 0.116947L0.895512 35.6277Z" fill="#471224"/>
<path d="M18.6178 17.323C17.8901 17.323 17.1922 17.0336 16.6777 16.5186C16.1632 16.0035 15.8741 15.3049 15.8741 14.5765C15.8741 13.8481 16.1632 13.1495 16.6777 12.6344C17.1922 12.1193 17.8901 11.83 18.6178 11.83C19.3454 11.83 20.0433 12.1193 20.5578 12.6344C21.0723 13.1495 21.3614 13.8481 21.3614 14.5765C21.3614 14.9372 21.2904 15.2943 21.1526 15.6275C21.0147 15.9608 20.8126 16.2635 20.5578 16.5186C20.303 16.7736 20.0006 16.9759 19.6677 17.1139C19.3348 17.252 18.9781 17.323 18.6178 17.323ZM18.6178 6.88623C16.5803 6.88623 14.6263 7.69645 13.1856 9.13865C11.7449 10.5809 10.9355 12.5369 10.9355 14.5765C10.9355 20.3442 18.6178 28.8584 18.6178 28.8584C18.6178 28.8584 26.3 20.3442 26.3 14.5765C26.3 12.5369 25.4906 10.5809 24.0499 9.13865C22.6092 7.69645 20.6552 6.88623 18.6178 6.88623Z" fill="white"/>
</svg>
