<svg width="172" height="35" viewBox="0 0 172 35" fill="none" xmlns="http://www.w3.org/2000/svg">
<path d="M16.8482 19.9714C19.1693 21.3086 20.3299 23.3269 20.3299 26.0265C20.3299 28.272 19.5352 30.1138 17.9457 31.5519C16.3562 32.99 14.4009 33.709 12.0798 33.709H0.839844V7.21767H11.285C13.5305 7.21767 15.4353 7.92411 16.9996 9.33698C18.5638 10.7499 19.346 12.5286 19.346 14.6731C19.346 16.8933 18.5134 18.6594 16.8482 19.9714ZM6.06243 12.0997V17.9278H11.285C12.0924 17.9278 12.761 17.6502 13.2908 17.0952C13.8458 16.5401 14.1234 15.8463 14.1234 15.0137C14.1234 14.1811 13.8585 13.4873 13.3286 12.9322C12.7988 12.3772 12.1176 12.0997 11.285 12.0997H6.06243ZM12.0798 28.8271C12.9628 28.8271 13.6945 28.5369 14.2747 27.9566C14.855 27.3511 15.1452 26.5942 15.1452 25.6859C15.1452 24.8029 14.855 24.0712 14.2747 23.4909C13.6945 22.8854 12.9628 22.5827 12.0798 22.5827H6.06243V28.8271H12.0798Z" fill="white"/>
<path d="M40.027 33.709L38.4375 28.9406H27.8788L26.2893 33.709H20.6504L29.9224 7.21767H36.3939L45.7037 33.709H40.027ZM29.5439 24.0586H36.8101L33.177 13.235L29.5439 24.0586Z" fill="white"/>
<path d="M47.519 7.21767H52.7416V33.709H47.519V7.21767Z" fill="white"/>
<path d="M81.6769 7.21767V33.709H76.4922V16.5275L69.0368 28.8271H68.4313L60.9758 16.5653V33.709H55.7533V7.21767H61.1272L68.734 19.7443L76.303 7.21767H81.6769Z" fill="white"/>
<path d="M89.1108 4.7956V0.821899H100.086V4.7956H89.1108ZM94.5983 34.2389C91.6464 34.2389 89.2243 33.4063 87.3321 31.7411C85.4398 30.0759 84.4937 27.8431 84.4937 25.0426V7.21767H89.6785V24.6263C89.6785 26.0139 90.0695 27.1114 90.8517 27.9188C91.659 28.7261 92.9079 29.1298 94.5983 29.1298C96.2887 29.1298 97.525 28.7261 98.3071 27.9188C99.1144 27.1114 99.5181 26.0139 99.5181 24.6263V7.21767H104.741V25.0426C104.741 27.8431 103.795 30.0759 101.902 31.7411C100.01 33.4063 97.5754 34.2389 94.5983 34.2389Z" fill="white"/>
<path d="M122.086 33.709L116.75 24.5127H112.776V33.709H107.553V7.21767H118.15C120.597 7.21767 122.679 8.07549 124.394 9.79112C126.11 11.5068 126.968 13.5756 126.968 15.9977C126.968 17.6628 126.501 19.1892 125.567 20.5769C124.634 21.9645 123.398 23.0116 121.859 23.718L127.725 33.709H122.086ZM112.776 12.0997V19.9335H118.15C118.629 19.9335 119.083 19.8326 119.512 19.6308C119.966 19.4289 120.357 19.1514 120.685 18.7982C121.013 18.4197 121.266 17.9908 121.442 17.5115C121.644 17.0321 121.745 16.5275 121.745 15.9977C121.745 15.4678 121.644 14.9632 121.442 14.4839C121.266 14.0045 121.013 13.5882 120.685 13.235C120.357 12.8818 119.966 12.6042 119.512 12.4024C119.083 12.2006 118.629 12.0997 118.15 12.0997H112.776Z" fill="white"/>
<path d="M145.938 33.709L144.348 28.9406H133.79L132.2 33.709H126.561L135.833 7.21767H142.305L151.614 33.709H145.938ZM135.455 24.0586H142.721L139.088 13.235L135.455 24.0586Z" fill="white"/>
<path d="M152.664 15.5818C152.664 10.557 156.64 7.0686 162.298 7.0686C167.883 7.0686 171.57 10.322 171.57 14.66C171.57 17.8592 169.998 19.8293 165.587 24.0407L160.111 29.2824V29.3909H171.932V33.7288H152.971V29.9873L162.208 21.2392C165.515 18.058 166.256 16.8109 166.256 15.0034C166.256 12.9067 164.648 11.3162 162.298 11.3162C159.695 11.3162 157.725 13.0694 157.725 15.5818H152.664Z" fill="white"/>
</svg>
